<?xml version="1.0" standalone="no"?>
<!DOCTYPE svg PUBLIC "-//W3C//DTD SVG 20010904//EN"
 "http://www.w3.org/TR/2001/REC-SVG-20010904/DTD/svg10.dtd">
<svg version="1.0" xmlns="http://www.w3.org/2000/svg"
 width="300.000000pt" height="244.000000pt" viewBox="0 0 300.000000 244.000000"
 preserveAspectRatio="xMidYMid meet">
<metadata>
Created by potrace 1.10, written by Peter Selinger 2001-2011
</metadata>
<g transform="translate(0.000000,244.000000) scale(0.050000,-0.050000)"
fill="#000000" stroke="none">
<path d="M4565 4575 c4 -13 43 -27 86 -30 113 -9 307 -85 331 -129 26 -49 135
-116 168 -103 57 21 304 -376 284 -455 -6 -21 -2 -33 8 -27 10 6 18 -25 18
-70 0 -44 7 -81 15 -81 8 0 17 -32 19 -70 2 -39 -4 -70 -14 -70 -18 0 -3 -79
22 -111 34 -44 -19 -71 -164 -81 -163 -11 -868 -103 -923 -120 -27 -8 -35 1
-35 37 0 97 -65 424 -102 509 -45 105 -82 91 372 144 597 69 638 71 668 34 32
-38 65 -24 48 20 -9 26 -15 26 -31 5 -13 -19 -15 -13 -8 20 10 47 10 47 -123
34 -306 -30 -680 -73 -764 -88 -151 -26 -226 -18 -249 27 -89 173 -220 305
-338 340 -55 16 -142 57 -195 91 -58 37 -139 69 -202 78 -58 8 -118 19 -133
23 -16 4 -32 -3 -37 -17 -7 -17 15 -25 70 -25 84 0 317 -101 291 -126 -7 -8 2
-14 21 -14 19 0 29 -8 23 -18 -6 -10 3 -23 20 -30 21 -8 26 -3 17 13 -8 14 3
9 25 -10 22 -19 50 -35 63 -35 191 0 499 -937 346 -1054 -29 -22 -29 -25 3
-25 19 -1 35 -13 35 -28 0 -41 -65 -89 -110 -81 -22 4 -58 -1 -80 -11 -99 -46
-726 -102 -701 -63 6 9 -3 29 -19 42 -25 21 -30 17 -30 -26 0 -28 -6 -66 -13
-86 -12 -31 -4 -33 80 -22 56 8 93 5 93 -6 0 -11 -20 -20 -45 -20 -40 0 -38
-5 20 -40 84 -51 83 -53 -33 -57 -54 -2 -326 -35 -605 -74 -889 -124 -1085
-149 -1161 -149 -40 0 -79 -9 -86 -20 -7 -11 -3 -20 9 -20 14 0 21 -102 22
-295 1 -162 9 -313 18 -335 9 -22 8 -55 -2 -74 -19 -37 46 -89 83 -66 35 22
21 87 -20 100 -46 15 -58 139 -15 157 20 8 20 10 0 11 -14 1 -25 21 -25 43 0
23 9 36 20 29 11 -7 20 -3 20 9 0 11 -9 21 -20 21 -12 0 -18 75 -15 190 5 216
-12 198 215 230 83 12 170 26 194 31 29 6 45 -2 50 -25 5 -30 10 -30 44 5 41
41 376 99 389 67 3 -10 24 -18 46 -18 22 0 34 9 27 19 -14 23 33 35 218 52 95
9 142 6 152 -11 10 -17 22 -15 44 7 42 42 356 85 377 52 8 -13 25 -18 37 -10
12 7 18 21 13 30 -6 9 23 21 64 28 132 22 145 18 145 -45 0 -58 0 -58 -160
-72 l-160 -14 -2 -113 c-8 -481 -6 -1743 3 -1743 6 0 199 40 428 90 229 49
433 90 452 90 58 0 57 -4 69 762 6 400 15 798 21 884 l10 156 -105 -15 c-59
-8 -131 -15 -161 -16 -105 -2 -76 -101 30 -101 l84 0 29 -106 c22 -82 23 -122
6 -180 -13 -40 -28 -93 -34 -117 -7 -27 -33 -47 -71 -54 -59 -12 -59 -13 -59
-151 0 -155 17 -139 -185 -174 -41 -7 -75 -20 -75 -30 0 -22 23 -21 135 0 51
10 85 9 85 -2 0 -10 16 -16 35 -12 21 4 34 25 35 56 0 38 11 50 44 51 24 0 50
7 58 15 31 31 48 11 48 -56 0 -53 -8 -70 -34 -70 -26 0 -29 -5 -10 -24 13 -13
24 -34 24 -46 0 -25 -330 -78 -363 -58 -12 7 -27 4 -34 -8 -19 -30 -163 -54
-163 -26 0 12 15 22 33 22 19 0 28 6 21 13 -17 17 -136 -33 -124 -52 5 -9 -13
-11 -41 -6 -28 6 -49 0 -49 -13 0 -12 -13 -22 -30 -22 -35 0 -36 9 -11 97 15
53 14 65 -8 56 -18 -7 -23 2 -16 31 6 22 36 49 68 60 31 11 52 28 46 37 -9 16
18 26 132 47 19 4 43 -18 60 -56 28 -60 29 -54 42 148 14 212 39 320 76 320
12 0 15 -26 8 -62 -12 -58 -10 -62 33 -48 31 10 41 7 31 -8 -7 -12 -31 -22
-52 -22 -22 0 -39 -9 -39 -20 0 -11 36 -20 80 -20 l80 0 0 81 c0 73 -4 80 -40
69 -28 -9 -40 -4 -40 19 0 17 14 31 30 31 35 0 39 46 9 101 -55 104 -141 40
-178 -131 -34 -160 -38 -169 -39 -106 -1 29 -11 59 -23 67 -15 9 -14 21 1 39
13 16 19 117 16 273 -6 261 -8 265 -101 227 -24 -10 -35 -5 -35 14 0 22 57 36
230 58 222 28 229 28 218 -8 -11 -34 -3 -36 80 -23 76 11 92 8 92 -18 0 -20
11 -27 30 -20 16 6 25 19 20 28 -25 40 306 76 333 36 15 -22 22 -21 43 6 14
19 70 39 125 47 54 7 124 18 156 22 35 6 51 1 43 -11 -17 -29 13 -26 82 7 84
40 288 62 288 30 0 -17 11 -15 35 7 58 51 277 67 289 22 28 -108 13 -515 -20
-540 -29 -21 -30 -31 -9 -66 40 -65 28 -577 -13 -600 -26 -15 -27 -24 -4 -68
22 -41 23 -94 5 -284 -26 -272 -26 -272 -232 -310 -180 -32 -486 -92 -551
-107 -203 -47 -374 -74 -423 -67 -33 5 -67 -3 -80 -18 -12 -15 -39 -27 -59
-27 -21 0 -38 -10 -38 -21 0 -12 -8 -16 -18 -10 -21 12 -261 -34 -350 -68 -50
-19 -55 -18 -43 13 12 31 10 31 -23 2 -41 -36 -197 -73 -370 -87 -64 -5 -163
-28 -221 -51 -57 -22 -124 -37 -149 -32 -25 4 -40 1 -34 -9 6 -9 -5 -17 -23
-17 -18 0 -111 -19 -206 -42 -95 -23 -196 -45 -223 -48 -55 -7 -307 -64 -368
-83 -24 -7 -32 -4 -23 11 19 30 -6 28 -38 -4 -41 -41 -307 -86 -336 -57 -12
12 -37 23 -54 23 -35 0 -38 16 -50 270 -5 99 -12 205 -17 235 -5 31 -1 61 9
67 9 6 17 -1 18 -16 0 -15 10 -9 22 12 18 30 16 43 -10 62 -18 13 -26 32 -18
42 8 10 -4 2 -27 -17 -39 -33 -41 -51 -34 -320 4 -157 2 -305 -4 -330 l-11
-46 -59 44 c-33 25 -60 60 -60 78 0 31 -110 107 -280 195 -129 67 -146 92
-132 190 11 74 21 89 47 79 22 -8 18 2 -12 32 -63 63 -68 452 -5 395 55 -50
69 -4 32 103 -14 43 -17 44 -42 10 -16 -21 -27 -25 -27 -10 -1 14 -14 25 -31
25 -39 0 -38 18 2 62 36 40 49 233 21 323 -20 64 117 85 166 26 39 -46 7 -157
-41 -145 -51 14 -48 1 9 -36 53 -35 142 -15 144 32 0 16 8 62 17 103 11 51 9
85 -7 104 -30 36 -31 289 -2 318 15 15 21 9 21 -18 1 -32 4 -34 19 -9 12 19
12 37 0 49 -32 32 -21 54 19 42 42 -14 76 18 42 39 -11 7 -15 33 -8 59 6 26 2
53 -10 60 -14 8 -22 -6 -22 -38 0 -28 -4 -51 -10 -51 -12 0 -355 132 -448 172
-37 17 -164 66 -283 109 -264 97 -330 130 -299 149 12 8 18 27 12 42 -16 42
-1 38 351 -100 526 -205 778 -297 788 -288 12 12 -46 39 -274 127 -156 60
-190 80 -183 109 5 20 0 42 -12 49 -13 8 -22 -3 -22 -28 0 -22 -2 -41 -5 -41
-5 0 -331 116 -465 166 -147 54 -192 81 -182 107 6 14 3 30 -7 36 -9 6 -23 -5
-30 -24 -13 -33 -16 -32 -42 4 -35 46 -52 35 -36 -25 6 -24 26 -44 44 -44 43
0 60 -597 18 -624 -20 -12 -20 -19 -1 -32 53 -34 58 -686 5 -654 -10 7 -19 3
-19 -9 0 -11 12 -21 27 -21 30 0 53 -171 53 -395 0 -70 9 -125 20 -125 11 0
20 -10 20 -21 0 -12 -16 -19 -35 -15 -19 4 -33 22 -29 40 3 18 -4 39 -15 46
-12 7 -21 -8 -21 -35 0 -56 52 -108 190 -187 54 -32 115 -67 134 -78 19 -11
235 -141 480 -290 533 -323 466 -313 1240 -178 225 39 546 78 706 85 33 2 67
12 75 23 9 12 15 10 15 -5 0 -15 -22 -35 -50 -45 -130 -49 2 -42 210 12 61 16
160 33 220 39 61 6 142 19 180 29 39 10 156 37 260 59 105 22 351 76 548 120
196 44 365 76 373 70 9 -5 22 0 29 11 7 11 20 16 29 11 26 -16 749 150 766
176 30 48 14 113 -36 146 l-51 33 11 302 c7 166 21 594 32 951 12 384 29 659
41 674 26 31 7 303 -35 507 -94 449 -288 764 -518 840 -118 40 -128 47 -95 71
35 25 35 27 -1 40 -22 9 -43 5 -52 -10 -12 -19 -26 -20 -59 -2 -34 18 -310 81
-355 81 -6 0 -7 -11 -2 -25z m882 -1291 c-11 -40 -177 -84 -318 -84 -44 0
-110 -9 -149 -19 -38 -10 -133 -23 -210 -28 -77 -6 -170 -19 -208 -31 -44 -13
-80 -14 -103 -1 -51 27 -53 26 -63 -41 -5 -33 -2 -60 7 -60 9 0 253 31 542 70
289 38 552 73 585 77 33 4 78 1 100 -8 22 -9 29 -17 15 -18 -14 0 -25 -14 -25
-30 0 -40 2 -40 -750 -141 -374 -50 -705 -96 -735 -102 -33 -7 -55 -3 -55 10
0 12 12 22 28 22 15 0 39 15 54 33 25 30 22 32 -35 24 -45 -7 -60 -2 -53 16 5
14 16 25 23 24 7 -1 48 -1 91 1 l78 2 -12 125 c-9 101 -7 117 13 85 12 -22 40
-43 60 -46 20 -4 32 1 26 10 -5 10 5 19 23 21 19 2 93 12 164 23 337 51 549
67 709 55 145 -11 171 -9 171 17 0 16 8 30 18 30 10 0 14 -16 9 -36z m-1607
-344 c-27 -9 -79 -17 -114 -18 -35 -1 -77 -16 -95 -33 -28 -29 -31 -29 -31 -1
0 17 20 36 45 41 76 17 143 26 195 26 l50 1 -50 -16z m-3418 -245 c2 -62 3
-62 18 -15 13 42 16 43 18 10 2 -22 12 -53 24 -70 18 -25 20 -25 11 5 -28 87
150 85 196 -2 15 -29 35 -48 44 -43 9 6 20 -33 23 -85 l6 -95 -56 25 c-31 13
-62 32 -68 42 -7 9 -19 8 -26 -3 -15 -25 -14 -26 138 -90 66 -28 172 -74 235
-102 63 -28 115 -45 115 -37 0 9 -27 27 -60 42 -56 25 -60 34 -60 135 0 100
20 136 50 88 7 -11 28 -20 47 -20 19 0 46 -11 60 -25 14 -14 34 -26 44 -27 10
-2 29 -4 41 -5 11 -2 19 -28 17 -58 -2 -30 -2 -59 0 -65 21 -65 16 -166 -7
-135 -15 19 -37 35 -49 35 -13 0 -23 10 -23 21 0 12 -11 15 -24 7 -16 -10 -9
-21 21 -35 24 -11 49 -43 55 -71 6 -29 19 -68 29 -87 11 -19 18 -64 18 -100
-2 -55 -8 -46 -42 60 -42 131 -109 171 -153 93 -16 -29 -28 -30 -93 -8 -89 29
-93 26 -106 -89 -8 -75 -4 -91 22 -91 22 0 33 17 33 50 0 28 7 50 16 50 15 0
18 -32 26 -252 6 -162 -57 -202 -202 -128 -107 55 -117 50 -44 -19 64 -61 80
-158 83 -477 1 -48 8 -82 18 -76 9 6 14 40 10 76 -6 61 -5 62 13 16 15 -38 17
-27 9 50 -27 251 -31 339 -13 313 15 -21 21 -20 31 5 6 18 23 32 36 32 13 0
18 -6 11 -13 -7 -7 4 -36 24 -65 30 -43 39 -106 48 -356 13 -335 16 -329 -109
-243 -29 20 -59 37 -66 37 -8 0 -53 27 -101 60 -48 33 -97 60 -108 60 -41 0
-62 81 -65 254 -1 97 -9 244 -18 326 -11 106 -13 67 -6 -135 7 -195 3 -285
-12 -285 -11 0 -21 -14 -21 -32 0 -17 -11 -28 -25 -23 -31 10 -97 1397 -76
1620 4 47 41 4 43 -50z m448 -123 c79 -28 80 -29 87 -140 7 -122 0 -127 -94
-81 -43 22 -63 46 -63 78 0 25 -6 74 -12 109 -7 34 -10 62 -5 62 4 0 43 -13
87 -28z m2690 -97 c0 -189 -45 -400 -89 -412 -38 -10 -38 -12 9 -25 l50 -14
-50 -1 c-173 -5 -219 436 -53 508 111 49 133 39 133 -56z m542 -412 c20 30 65
-16 46 -47 -26 -41 -104 -16 -93 28 7 28 15 35 21 18 7 -22 12 -22 26 1z
m-583 -117 c63 -16 8 -42 -94 -45 -69 -1 -89 30 -30 45 54 14 71 14 124 0z
m631 -511 c-6 -199 -11 -226 -43 -232 -67 -13 -78 -43 -15 -43 54 0 59 -6 57
-66 -3 -94 -24 -120 -89 -107 -30 6 -63 2 -74 -9 -11 -11 -42 -23 -68 -26 -26
-4 -61 -12 -78 -17 -51 -19 -439 -95 -481 -95 -38 0 -38 2 -7 50 18 28 50 50
71 50 23 0 34 9 26 22 -7 12 -30 17 -51 12 -28 -8 -38 0 -38 28 0 22 14 39 35
40 22 1 26 5 9 12 -20 7 -20 16 -2 38 18 22 15 28 -15 29 -33 0 -32 5 10 40
47 39 47 39 5 39 -42 0 -54 75 -17 111 7 7 7 26 1 41 -6 17 3 28 22 28 18 0
32 9 32 20 0 11 -17 20 -37 20 -28 0 -35 11 -29 45 8 41 31 50 202 83 107 21
275 54 374 73 99 19 186 36 193 37 8 1 11 -99 7 -223z m-3541 -478 c24 -22
-151 44 -184 69 -14 10 -25 27 -25 37 0 17 164 -66 209 -106z m717 -418 c63
-40 90 -68 80 -85 -11 -18 -17 -16 -21 7 -4 17 -53 55 -111 85 -57 29 -90 53
-74 53 17 0 73 -27 126 -60z"/>
<path d="M474 2567 c-22 -21 -16 -87 7 -87 29 0 48 59 25 82 -10 10 -25 13
-32 5z"/>
<path d="M704 2248 c-16 -29 -28 -30 -93 -8 -102 33 -117 13 -134 -185 l-14
-165 73 -76 c74 -76 283 -194 342 -194 28 1 28 3 2 20 -16 10 -30 35 -31 54 0
20 -12 34 -26 31 -18 -4 -23 23 -17 100 6 67 -1 116 -17 135 -57 67 -44 145
27 164 81 22 100 65 53 117 -43 47 -140 51 -165 7z m0 -202 c-5 -26 -17 -51
-26 -57 -28 -18 -21 -49 11 -49 54 0 91 -61 91 -151 0 -49 -5 -89 -11 -89 -41
0 -91 49 -88 86 6 78 -1 114 -21 114 -11 0 -17 -20 -15 -44 8 -76 -55 -67 -93
14 -53 111 -37 222 32 214 39 -5 60 6 78 39 30 56 58 5 42 -77z"/>
<path d="M3694 1493 c-15 -40 -2 -49 57 -38 28 6 47 20 43 32 -11 35 -87 39
-100 6z"/>
<path d="M3760 1428 c0 -27 84 -128 99 -119 9 6 32 -8 51 -29 45 -50 70 -51
70 -4 0 38 -38 75 -134 129 -66 37 -86 42 -86 23z"/>
<path d="M3610 1348 c-39 -30 -38 -31 18 -24 33 3 63 17 67 31 11 34 -36 30
-85 -7z"/>
<path d="M3809 1239 c-19 -31 -6 -37 56 -25 30 6 50 19 44 28 -16 25 -84 22
-100 -3z"/>
<path d="M3910 1147 l-60 -29 69 11 c39 7 79 21 89 31 30 30 -27 22 -98 -13z"/>
<path d="M3681 1105 c-38 -4 -87 -21 -110 -38 -39 -28 -38 -28 19 -15 231 56
262 74 91 53z"/>
<path d="M3815 1066 c-19 -5 -35 -17 -35 -27 0 -29 65 -21 109 12 42 32 13 38
-74 15z"/>
<path d="M2180 4424 c0 -25 49 -44 112 -44 27 0 54 -13 61 -30 6 -16 32 -30
58 -30 27 0 57 -17 68 -39 12 -21 39 -44 61 -51 22 -7 35 -22 29 -32 -22 -36
33 -78 84 -65 124 31 304 -305 395 -736 25 -118 38 -211 29 -205 -9 5 -21 -15
-27 -46 -6 -31 -20 -83 -30 -115 -14 -42 -13 -63 5 -74 54 -33 -522 -116 -801
-115 -37 0 -77 -8 -90 -19 -30 -24 -268 -61 -315 -48 -69 18 -62 83 8 74 190
-23 273 -25 273 -8 0 10 7 18 15 17 53 -9 91 4 72 23 -15 15 -54 16 -123 3
-110 -20 -191 2 -90 25 33 7 68 11 78 10 41 -8 94 2 80 15 -7 8 -49 12 -91 9
-45 -3 -105 9 -144 29 -37 20 -105 38 -152 41 -120 7 -131 19 -120 120 6 48 3
92 -6 97 -29 18 5 90 43 90 52 0 27 56 -29 64 -29 4 -42 19 -39 46 2 22 -14
68 -36 103 -51 83 -52 82 274 106 727 54 1016 83 1035 101 10 9 -17 13 -60 9
-340 -37 -996 -71 -1003 -52 -3 11 -21 15 -39 8 -20 -7 -27 -4 -18 10 7 12
-16 42 -52 68 -36 25 -77 61 -91 81 -15 20 -46 37 -70 37 -42 2 -43 2 -4 19
29 13 13 18 -64 19 -64 0 -110 11 -120 28 -9 14 -34 33 -55 41 -22 8 -31 20
-20 28 10 8 19 37 19 64 0 48 5 50 130 52 72 1 151 9 177 17 52 16 31 -54 -22
-76 -14 -5 -5 -11 20 -11 26 -1 45 10 45 26 0 38 41 51 218 67 167 14 128 38
-70 43 -184 4 -260 29 -138 45 55 8 -12 8 -150 2 -137 -7 -289 -12 -337 -11
l-87 1 97 -100 c58 -60 81 -95 57 -86 -191 71 -196 68 -101 -65 180 -251 342
-770 383 -1227 l13 -153 61 21 61 21 -48 20 c-29 11 -39 22 -24 28 14 5 20 18
14 28 -6 10 -2 18 10 18 11 0 21 19 21 41 0 23 9 36 20 29 11 -7 20 -48 20
-92 0 -71 4 -78 45 -69 25 6 293 43 595 82 775 101 938 125 875 127 -43 2 -55
12 -55 47 0 25 -6 65 -13 90 -15 59 48 87 84 37 43 -58 55 27 29 200 -13 83
-20 155 -15 159 17 18 327 52 376 42 29 -6 61 -3 71 6 10 10 86 23 168 31 179
16 334 44 260 48 -27 1 -238 -21 -468 -48 -397 -48 -477 -50 -413 -10 22 13
23 23 5 45 -13 16 -18 35 -10 42 7 7 -4 26 -25 42 -22 15 -33 34 -25 42 8 7 1
27 -15 43 -43 43 -17 66 77 66 159 1 802 80 823 102 26 28 -126 17 -539 -40
-407 -55 -394 -56 -432 33 -78 182 -259 365 -361 365 -28 0 -68 19 -89 42 -49
55 -199 129 -288 143 -38 7 -86 18 -105 25 -19 8 -35 5 -35 -6z m-680 -203 c0
-16 -218 -6 -238 12 -5 4 47 7 115 7 68 0 123 -8 123 -19z m83 -464 c86 -94
86 -92 17 -97 -78 -7 -89 -3 -118 45 -88 140 -15 177 101 52z m246 -845 c33
-12 35 -17 10 -32 -18 -12 -32 -11 -36 1 -3 10 -32 19 -63 19 -70 0 -94 30
-45 57 24 14 44 13 65 -5 16 -14 48 -32 69 -40z"/>
<path d="M2910 4378 c-212 -21 -268 -32 -167 -36 41 -1 90 -7 110 -14 31 -10
32 -8 7 10 -22 16 5 21 110 21 77 0 172 8 210 18 l70 19 -80 -1 c-44 0 -161
-8 -260 -17z"/>
<path d="M4720 4360 c0 -11 14 -20 31 -20 17 0 26 -9 19 -20 -15 -25 10 -26
48 -2 22 14 19 22 -14 40 -51 27 -84 28 -84 2z"/>
<path d="M3174 4323 c-27 -11 -13 -21 60 -43 94 -27 95 -28 31 -35 -37 -4 -73
-23 -85 -45 -28 -52 6 -68 74 -36 73 34 178 34 171 1 -3 -14 15 -26 40 -26 25
-1 81 -19 125 -39 l80 -37 -75 -2 c-88 -1 -91 -11 -26 -91 38 -46 50 -52 50
-25 1 42 94 70 126 38 51 -51 75 -25 42 44 -22 46 -63 83 -129 115 -54 27 -98
54 -98 62 0 8 -34 20 -75 28 -41 7 -115 35 -165 61 -98 51 -94 50 -146 30z"/>
<path d="M1890 4300 l-120 -13 120 -1 c66 -1 174 5 240 13 l120 15 -120 0
c-66 -1 -174 -7 -240 -14z"/>
<path d="M3050 4299 c-56 -11 -53 -13 36 -28 53 -9 101 -10 108 -3 7 6 -6 12
-29 12 -23 0 -45 7 -48 16 -4 8 -34 10 -67 3z"/>
<path d="M4867 4276 c-33 -72 -14 -91 79 -82 159 16 201 77 53 77 -45 0 -88
11 -97 25 -11 18 -21 12 -35 -20z"/>
<path d="M605 4241 c-219 -100 -375 -465 -389 -912 l-6 -194 70 -26 c39 -14
223 -81 410 -149 850 -308 836 -305 763 -223 -18 20 -26 44 -18 53 8 9 -1 11
-20 4 -31 -11 -35 2 -38 112 -3 119 -3 120 -15 34 -12 -89 -13 -90 -102 -102
-100 -13 -213 65 -188 130 19 49 -23 38 -48 -13 -16 -34 -22 37 -23 300 -1
300 3 345 30 345 17 0 26 9 19 20 -7 12 -20 16 -29 10 -28 -17 -41 46 -41 197
-1 157 -15 201 -59 173 -23 -14 -24 -23 -3 -48 26 -31 22 -246 -8 -357 -11
-41 -7 -55 14 -55 19 0 28 -23 28 -71 0 -61 -6 -70 -38 -62 -37 10 -37 9 2
-33 34 -38 40 -74 43 -249 3 -205 -8 -233 -65 -176 -16 16 -34 24 -40 18 -25
-25 -94 38 -97 89 -2 49 -3 49 -11 8 -7 -37 -15 -42 -37 -24 -15 13 -43 20
-63 16 -20 -4 -52 8 -72 26 -20 19 -54 29 -75 23 -25 -6 -39 1 -39 18 -2 156
-22 505 -30 513 -5 6 -10 -99 -10 -233 0 -207 -5 -243 -31 -243 -19 0 -26 -10
-17 -25 8 -14 -7 -4 -32 22 -156 161 154 1084 343 1018 15 -5 43 -682 37 -920
-1 -69 6 -115 19 -115 24 0 25 9 21 163 -2 106 0 113 39 103 52 -14 54 26 2
54 -25 13 -39 41 -39 75 1 30 -5 188 -13 350 l-15 295 59 0 c33 0 77 -16 98
-36 22 -19 60 -37 86 -39 l48 -3 -48 51 c-113 121 -235 150 -372 88z"/>
<path d="M4310 4239 c44 -20 69 -37 55 -38 -14 0 -25 -14 -25 -31 0 -34 72
-37 220 -11 105 19 103 20 -30 33 -103 10 -176 48 -93 48 25 0 40 8 34 19 -6
10 -63 18 -126 17 l-115 -1 80 -36z"/>
<path d="M993 4247 c-25 -26 -13 -47 27 -47 22 0 40 13 40 30 0 30 -42 41 -67
17z"/>
<path d="M2060 4162 c41 -15 30 -18 -60 -20 -257 -6 -270 -56 -15 -60 102 -1
260 -12 351 -24 92 -12 172 -17 179 -10 6 7 -15 13 -47 14 -32 1 -80 9 -108
18 -32 10 1 13 90 9 77 -3 113 -2 80 4 -33 6 -65 18 -71 28 -6 10 -82 22 -170
27 -87 5 -186 15 -219 21 -54 9 -55 9 -10 -7z"/>
<path d="M3297 4082 c41 -26 -31 -47 -77 -22 -21 11 -71 20 -112 20 -89 0 -80
-22 10 -24 39 -1 62 -12 62 -30 0 -31 133 -17 170 17 20 19 -20 56 -60 56 -11
0 -8 -7 7 -17z"/>
<path d="M1520 4042 c-95 -17 -34 -38 77 -26 60 6 79 14 60 26 -29 19 -33 19
-137 0z"/>
<path d="M1866 4045 c52 -4 133 -4 180 0 46 5 3 8 -96 8 -99 0 -137 -4 -84 -8z"/>
<path d="M2260 4005 c-82 -4 -139 -13 -127 -21 13 -8 -86 -14 -220 -14 -134 0
-253 7 -266 15 -13 8 -28 2 -34 -14 -11 -28 44 -66 164 -113 39 -15 45 -13 36
12 -12 32 -19 30 235 42 65 2 149 10 186 17 110 21 333 26 376 9 28 -10 9 -16
-61 -17 -100 -1 -136 -17 -187 -86 -25 -32 -18 -34 84 -30 60 3 105 13 100 22
-6 9 -41 11 -78 4 -56 -10 -65 -7 -56 18 9 23 41 31 119 31 136 0 214 29 205
75 -11 57 -106 67 -476 50z"/>
<path d="M5045 3915 c5 -14 22 -24 38 -23 16 1 44 -23 62 -55 l33 -57 -84 -3
c-46 -2 -100 -2 -119 0 -44 3 -45 -24 -2 -59 38 -32 -67 -64 -148 -45 -61 15
-36 47 36 47 33 0 59 9 59 20 0 35 -264 34 -277 -1 -3 -11 -26 -19 -50 -19
-23 0 -56 -10 -73 -22 -22 -15 7 -18 104 -9 113 10 136 7 153 -22 19 -36 163
-57 163 -25 0 10 20 18 45 18 153 -1 194 3 203 17 5 8 -19 16 -54 17 -105 3
-114 5 -114 28 0 12 11 18 25 13 14 -5 55 4 92 19 63 26 69 25 117 -23 35 -35
73 -51 120 -51 74 0 86 45 14 56 -21 4 -55 29 -76 57 l-37 51 47 -14 48 -14
-46 34 c-26 19 -52 29 -58 23 -6 -6 -25 3 -42 20 -18 18 -53 27 -87 22 -31 -4
-57 -1 -57 8 0 10 -10 17 -22 17 -12 0 -17 -11 -13 -25z"/>
<path d="M2089 3819 c-7 -12 -32 -30 -56 -39 -59 -24 -2 -24 137 -1 105 17
165 5 99 -21 -26 -10 -29 -16 -9 -16 55 -2 95 34 55 49 -19 7 -30 21 -24 31 6
10 -3 18 -20 18 -17 0 -31 -9 -31 -20 0 -11 -23 -20 -51 -20 -29 0 -46 9 -39
20 7 11 -1 20 -18 20 -16 0 -36 -10 -43 -21z"/>
<path d="M3713 3677 c-12 -20 -45 -38 -73 -39 -48 -2 -48 -3 -6 -15 64 -19 29
-62 -39 -49 -30 6 -50 19 -44 28 16 25 -135 22 -171 -4 -23 -16 -13 -18 38
-10 l68 12 -48 -43 -48 -42 139 12 c76 7 145 23 153 35 7 13 33 19 57 13 29
-8 50 1 67 27 13 21 35 38 49 38 14 0 25 18 25 39 0 54 -133 52 -167 -2z"/>
<path d="M571 3625 c-14 -37 2 -55 64 -74 59 -18 57 11 -3 64 -43 37 -50 38
-61 10z"/>
<path d="M1717 3543 c24 -24 54 -44 68 -44 14 -1 7 -9 -15 -19 -36 -15 -34
-19 25 -43 79 -32 82 -52 10 -68 -103 -23 -95 -29 25 -18 110 10 116 8 80 -20
-37 -28 -33 -30 60 -28 55 1 84 6 65 11 -20 5 -30 18 -24 28 7 11 2 33 -12 49
-20 24 -17 29 17 29 48 0 122 -64 87 -76 -44 -14 0 -44 63 -43 58 0 60 3 29
27 -19 14 -35 40 -35 56 0 45 -79 107 -125 99 -30 -5 -37 2 -29 25 7 17 4 36
-7 43 -10 6 -19 1 -19 -11 0 -34 -52 -80 -91 -80 -23 0 -31 12 -24 39 8 28 2
35 -19 27 -17 -7 -36 -2 -43 9 -7 12 -39 28 -71 36 l-58 15 43 -43z"/>
<path d="M2257 3576 c-17 -42 -5 -111 17 -93 31 26 34 70 6 87 -11 7 -21 10
-23 6z"/>
<path d="M1146 3524 c-30 -19 -21 -89 12 -100 14 -5 22 5 18 23 -3 17 12 44
34 61 45 35 -12 49 -64 16z"/>
<path d="M2710 3500 c-201 -17 -270 -35 -227 -62 25 -16 196 -10 392 14 74 9
82 14 57 39 -16 16 -32 28 -36 26 -3 -2 -87 -10 -186 -17z"/>
<path d="M2289 3439 c-20 -33 -3 -39 77 -26 40 7 68 20 62 30 -15 24 -123 21
-139 -4z"/>
<path d="M5209 3429 c-37 -30 -35 -31 29 -20 37 6 75 11 85 11 9 0 17 9 17 20
0 31 -88 23 -131 -11z"/>
<path d="M3640 3408 c-49 -27 -48 -27 35 -28 62 0 85 8 85 30 0 37 -53 36
-120 -2z"/>
<path d="M2590 3370 c-99 -14 -148 -25 -110 -26 39 -1 160 10 270 25 110 14
160 26 110 26 -49 -1 -171 -12 -270 -25z"/>
<path d="M600 3331 c0 -32 76 -82 95 -63 13 14 -53 92 -78 92 -9 0 -17 -13
-17 -29z"/>
<path d="M3721 3331 c-22 -26 -20 -31 8 -31 21 0 28 9 18 25 -8 14 1 12 22 -5
20 -16 60 -41 89 -53 49 -22 49 -24 8 -25 -24 -1 -50 -12 -58 -25 -10 -17 7
-19 64 -8 43 9 98 16 122 15 105 0 -35 94 -186 125 -43 9 -69 4 -87 -18z"/>
<path d="M3584 3313 c-25 -14 -40 -30 -33 -37 17 -17 108 10 110 34 3 30 -26
31 -77 3z"/>
<path d="M1695 3226 c-19 -5 -35 -22 -35 -37 0 -33 51 -39 70 -9 7 11 44 20
82 20 42 0 65 8 58 20 -12 20 -109 23 -175 6z"/>
<path d="M2489 3178 c-14 -23 167 -21 221 2 28 12 1 17 -85 16 -69 0 -130 -8
-136 -18z"/>
<path d="M2745 3106 c-26 -5 -45 -23 -45 -42 1 -23 6 -26 16 -10 8 12 53 27
99 31 46 4 91 14 98 21 14 15 -92 14 -168 0z"/>
<path d="M2362 2997 c-92 -8 -176 -24 -185 -36 -10 -11 -11 -16 -4 -11 7 5 25
0 40 -13 15 -12 27 -15 27 -7 0 8 15 3 34 -13 29 -23 31 -23 17 1 -14 23 -5
26 46 16 35 -7 63 -6 63 4 0 9 81 22 180 30 246 18 323 52 110 47 -88 -2 -236
-10 -328 -18z"/>
<path d="M5370 2898 c-141 -24 -312 -50 -675 -101 l-315 -44 -3 -392 c-2 -215
-5 -413 -8 -441 -19 -225 -8 -930 15 -928 14 2 121 23 236 47 116 25 352 75
526 111 174 36 319 69 322 73 4 4 17 375 31 824 13 449 29 829 34 845 13 32
-11 33 -163 6z m-80 -117 c7 -12 30 -13 61 -1 48 18 49 16 49 -70 0 -72 -7
-90 -35 -91 -28 -1 -27 -5 8 -19 33 -13 41 -31 35 -78 -4 -34 1 -62 10 -62 10
0 10 -36 -1 -82 -10 -45 -16 -96 -12 -114 5 -35 -3 -38 -264 -84 -93 -17 -132
-17 -137 -2 -10 30 -45 27 -82 -6 -36 -32 -462 -114 -462 -88 0 9 8 16 18 16
25 0 16 114 -12 142 -18 18 -17 30 5 52 21 21 23 39 9 66 -28 52 -25 60 15 48
33 -11 33 -9 -1 18 -38 31 -2 41 344 93 129 20 173 39 127 55 -14 5 -20 18
-14 28 15 24 -75 23 -141 -2 -35 -13 -48 -13 -40 0 7 12 -14 20 -50 20 -35 0
-57 -8 -50 -19 15 -26 -69 -47 -143 -36 -43 7 -36 10 28 12 62 2 85 11 85 34
0 24 -8 26 -39 10 -65 -35 -137 -28 -99 9 38 39 97 53 245 61 65 4 130 11 144
17 14 5 31 -4 38 -22 9 -24 17 -26 41 -6 16 13 45 19 63 12 19 -8 40 -4 47 7
18 30 81 -20 88 -70 4 -27 23 -40 64 -43 32 -3 48 0 37 5 -12 6 -18 37 -13 69
5 33 -1 60 -12 60 -11 0 -16 18 -10 40 11 43 36 52 56 21z m110 -651 c31 -19
0 -159 -43 -195 l-41 -35 42 0 c47 0 53 -187 8 -217 -41 -27 -44 -103 -4 -103
27 0 38 -14 38 -50 0 -64 -24 -73 -340 -129 -137 -24 -326 -62 -418 -84 -137
-33 -171 -35 -185 -13 -28 44 -19 79 23 90 22 6 40 18 40 28 0 23 -72 59 -87
44 -7 -7 -13 7 -13 31 0 24 10 43 22 43 14 0 19 24 14 60 -6 41 -1 60 17 60
15 0 27 13 27 30 0 32 83 61 129 43 15 -6 32 -1 36 11 4 12 52 23 106 25 54 2
129 19 165 38 36 19 83 30 103 23 21 -6 43 -2 50 9 8 12 42 21 77 21 35 0 78
9 94 20 21 13 -1 16 -70 9 -55 -6 -161 -12 -235 -14 -74 -1 -135 -9 -135 -17
0 -22 -115 -54 -240 -67 -75 -7 -97 -5 -70 8 22 10 29 19 15 20 -69 3 -130
141 -63 141 10 0 18 17 18 39 0 31 19 41 95 51 52 7 140 21 195 32 55 10 141
23 190 29 50 6 126 19 170 28 77 18 236 12 270 -9z m-52 -840 c-27 -42 -122
-89 -97 -48 13 20 -56 -2 -71 -23 -5 -7 -68 -23 -140 -35 -150 -25 -374 -71
-489 -101 -123 -32 -188 46 -76 92 l55 22 -55 -7 c-30 -4 -55 0 -55 9 0 25 92
53 330 101 121 24 292 60 380 79 192 43 281 7 218 -89z"/>
<path d="M5080 2620 c0 -11 -13 -20 -30 -20 -16 0 -30 -9 -30 -20 0 -26 32
-25 82 1 21 12 34 30 27 40 -15 25 -49 24 -49 -1z"/>
<path d="M4850 2439 c-8 -12 -6 -31 4 -41 25 -25 90 0 80 29 -10 32 -67 40
-84 12z"/>
<path d="M5030 2280 c-52 -13 -27 -30 32 -23 56 7 125 23 134 32 15 15 -94 9
-166 -9z"/>
<path d="M3060 2580 c-27 -7 -336 -53 -686 -102 l-636 -88 11 -250 c6 -137 16
-574 22 -970 7 -396 14 -722 17 -724 2 -3 188 35 413 85 560 123 756 165 844
180 l75 13 1 183 c0 101 5 517 12 925 12 765 11 772 -73 748z m-386 -148 c-17
-44 7 -53 65 -23 29 16 107 31 172 35 l119 6 -2 -80 -1 -80 -99 -12 c-289 -35
-317 -37 -268 -20 28 10 80 19 116 20 68 2 49 62 -20 62 -21 -1 -21 -4 0 -17
34 -21 -170 -67 -229 -51 -23 6 -49 2 -56 -10 -9 -14 14 -23 63 -24 67 -2 64
-5 -34 -20 -60 -10 -150 -26 -199 -36 -99 -20 -141 -11 -141 30 0 15 -9 28
-20 28 -11 0 -20 -9 -20 -20 0 -11 -20 -21 -45 -22 -34 -2 -36 -5 -10 -12 47
-12 45 -46 -2 -46 -21 0 -68 -6 -105 -13 -62 -13 -65 -11 -41 20 24 28 24 33
0 35 -15 1 0 13 33 28 42 19 51 30 30 37 -16 5 -43 14 -60 20 -20 7 -17 10 11
11 22 1 62 17 89 36 37 26 81 33 177 29 93 -4 123 0 113 18 -8 13 9 8 38 -11
31 -21 52 -26 52 -12 0 12 13 22 28 22 15 0 33 14 39 30 18 46 53 36 54 -15 2
-38 4 -39 16 -10 13 33 16 32 50 -7 20 -23 42 -35 49 -27 8 8 3 18 -11 23 -18
7 -15 22 10 57 40 54 54 62 39 21z m366 -253 c-11 -36 -9 -63 3 -71 15 -9 14
-114 -2 -208 -1 -5 -9 2 -19 17 -13 21 -19 20 -29 -5 -7 -20 -1 -32 18 -32 32
0 41 -59 9 -62 -11 -2 -27 -5 -35 -7 -8 -1 -69 -10 -135 -18 -66 -9 -187 -29
-269 -45 -82 -17 -212 -39 -290 -50 -78 -11 -187 -27 -244 -35 l-102 -15 42
61 c24 33 44 64 46 68 2 3 19 8 39 11 20 3 39 15 43 28 5 14 -13 18 -49 12
-99 -17 -133 -32 -169 -76 -35 -42 -36 -42 -39 33 -2 41 -5 86 -6 98 -1 13 9
27 23 32 14 5 25 -6 25 -23 0 -18 17 -32 39 -32 53 0 69 33 28 56 -20 12 -28
32 -20 52 9 24 -3 39 -41 53 -30 12 -45 28 -34 37 25 22 326 71 342 55 7 -7
22 -5 34 5 12 9 126 33 252 52 127 20 293 46 370 59 176 29 191 24 170 -50z
m0 -417 c0 -10 -11 -23 -25 -29 -15 -6 -11 -10 10 -11 39 -2 49 -71 13 -93
-12 -7 -17 -30 -12 -51 8 -28 -1 -39 -33 -40 -39 -2 -38 -3 7 -17 l50 -15 -50
-12 c-204 -50 -497 -96 -548 -86 -40 8 -52 6 -34 -6 20 -13 -4 -24 -80 -36
-59 -11 -117 -12 -127 -2 -10 9 -28 16 -40 16 -12 0 -9 -8 6 -18 18 -11 -15
-25 -101 -40 -223 -38 -252 -29 -176 58 46 53 50 73 17 84 -13 5 -24 26 -26
47 -2 22 -10 51 -18 64 -9 14 -8 25 1 25 9 1 93 15 186 32 94 18 233 40 310
49 196 24 406 56 500 77 111 24 170 25 170 4z m8 -326 c-8 -13 -13 -144 -12
-291 2 -171 -4 -263 -16 -255 -11 7 -20 4 -20 -6 0 -11 18 -24 40 -30 127 -33
28 -77 -330 -144 -77 -15 -167 -33 -200 -41 -33 -8 -89 -16 -125 -17 -36 -1
-65 -7 -65 -14 0 -6 -47 -22 -105 -35 -135 -29 -335 -52 -335 -37 0 32 27 72
42 63 10 -6 18 -3 18 8 0 11 6 35 13 55 10 23 6 30 -10 20 -13 -8 -23 -2 -23
15 0 16 -14 34 -31 41 -17 6 -26 21 -19 32 19 30 102 24 130 -10 14 -16 43
-25 67 -20 24 5 82 13 130 18 102 11 107 14 80 53 -15 22 -23 23 -30 4 -12
-30 -147 -34 -147 -5 0 11 -12 20 -27 20 -15 0 -43 18 -63 40 -19 21 -43 34
-53 28 -9 -6 -17 4 -17 21 0 17 -9 31 -20 31 -32 0 -23 104 13 143 18 21 49
37 69 37 20 0 41 9 49 21 7 11 32 15 56 8 41 -12 41 -11 -4 21 -36 27 -69 32
-150 22 -167 -20 -63 23 139 57 157 27 570 101 828 149 131 25 144 25 128 -2z"/>
<path d="M2161 1989 c-31 -17 -58 -20 -72 -8 -14 12 -36 8 -61 -11 -35 -27
-32 -29 42 -29 108 -1 170 18 170 51 0 33 -14 33 -79 -3z"/>
<path d="M2805 1960 c-78 -47 -86 -100 -16 -100 34 0 57 18 80 63 47 94 38 99
-64 37z"/>
<path d="M2375 1246 c-19 -5 -35 -18 -35 -30 0 -12 19 -15 45 -9 25 7 52 13
60 13 8 0 15 9 15 20 0 21 -24 22 -85 6z"/>
<path d="M2800 920 c-46 -15 -44 -16 20 -18 39 -1 84 7 100 18 38 24 -44 24
-120 0z"/>
<path d="M2495 886 c-30 -5 -55 -18 -55 -29 0 -22 200 -4 270 24 43 18 -110
21 -215 5z"/>
<path d="M2035 718 c37 -24 83 -38 105 -32 22 6 45 2 51 -8 6 -10 31 -17 55
-16 24 0 33 6 19 11 -14 6 -25 22 -25 37 0 17 -25 25 -75 23 -41 -2 -102 4
-135 13 l-60 15 65 -43z"/>
<path d="M3811 2042 c-17 -28 12 -144 35 -137 34 12 40 155 6 155 -16 0 -35
-8 -41 -18z"/>
<path d="M1460 1790 c0 -34 9 -50 25 -45 14 5 25 25 25 45 0 20 -11 40 -25 45
-16 5 -25 -11 -25 -45z"/>
<path d="M3860 1738 c0 -15 -23 -19 -65 -11 -46 9 -56 7 -35 -7 27 -17 27 -19
0 -20 -23 -1 -22 -6 5 -22 37 -21 215 -4 215 20 0 27 -48 62 -84 62 -20 0 -36
-10 -36 -22z"/>
<path d="M1114 1704 c-47 -6 -52 -12 -33 -36 19 -22 31 -23 53 -5 24 20 26 1
14 -135 -13 -146 -12 -156 19 -131 18 16 33 47 33 71 0 24 11 55 24 68 19 19
19 29 0 48 -13 13 -24 44 -24 69 0 53 -12 61 -86 51z"/>
<path d="M1262 1415 c-4 -409 14 -629 48 -581 46 66 55 159 21 224 -24 47 -31
127 -31 361 0 166 -8 301 -18 301 -9 0 -18 -137 -20 -305z"/>
<path d="M1557 1656 c-18 -112 13 -567 35 -516 39 89 51 160 25 160 -16 0 -20
43 -11 151 8 104 3 166 -15 200 l-26 51 -8 -46z"/>
<path d="M1407 1389 c-25 -38 -27 -57 -10 -74 13 -13 23 -66 23 -119 0 -53 9
-96 20 -96 13 0 18 65 15 170 -6 193 -3 187 -48 119z"/>
<path d="M1428 1030 c2 -43 64 -66 95 -35 21 21 2 85 -25 85 -10 0 -18 -18
-18 -40 0 -49 -34 -53 -46 -5 -6 27 -7 26 -6 -5z"/>
<path d="M1441 856 c0 -51 8 -99 19 -106 24 -15 24 103 0 160 -13 30 -18 17
-19 -54z"/>
<path d="M1308 697 c-7 -12 -1 -29 14 -39 40 -25 58 -22 58 10 0 35 -54 57
-72 29z"/>
</g>
</svg>
